<?xml version="1.0" standalone="no"?><!DOCTYPE svg PUBLIC "-//W3C//DTD SVG 1.1//EN" "http://www.w3.org/Graphics/SVG/1.1/DTD/svg11.dtd"><svg t="1766926199657" class="icon" viewBox="0 0 1024 1024" version="1.1" xmlns="http://www.w3.org/2000/svg" p-id="10629" xmlns:xlink="http://www.w3.org/1999/xlink" width="200" height="200"><path d="M3.32861018 1.3970905v1016.88830442h1016.88830443v-1016.88830442h-1016.88830443z m508.44415222 855.54960137c-127.59391798 0-232.12321854-98.73474151-241.43996056-223.94266459-0.45447522-2.2723761-0.68171283-4.54475219-0.68171282-6.81712829V204.20665735c0-22.9509986 21.81481055-41.47086381 48.62884851-41.47086381 26.81403797 0 48.62884853 18.51986521 48.62884853 41.47086381v216.67106107c40.33467576-30.22260212 90.44056876-48.0607545 144.75035752-48.0607545 133.72933344 0 242.12167338 108.39233994 242.12167338 242.00805457s-108.27872113 242.12167338-242.00805456 242.12167338z" fill="#4d9df5" p-id="10630"></path><path d="M511.7727624 455.98592915c-64.30824361 0-119.75422043 38.17591847-144.75035754 93.16742008-9.0895044 19.99690967-14.20235062 42.26619545-14.20235062 65.67166926 0 12.27083094 1.36342565 24.54166186 4.20389579 36.4716364 16.47472672 70.21642147 79.53316347 122.48107175 154.74881237 122.48107175 87.82733624 0 158.95270815-71.1253719 158.95270813-158.95270815 0-87.71371744-71.1253719-158.83908934-158.95270813-158.83908934z" fill="#4d9df5" p-id="10631"></path></svg>